<?xml version="1.0" standalone="no"?>
<!DOCTYPE svg PUBLIC "-//W3C//DTD SVG 20010904//EN"
 "http://www.w3.org/TR/2001/REC-SVG-20010904/DTD/svg10.dtd">
<svg version="1.0" xmlns="http://www.w3.org/2000/svg"
 width="1024.000000pt" height="1024.000000pt" viewBox="0 0 1024.000000 1024.000000"
 preserveAspectRatio="xMidYMid meet">
<metadata>
Created by potrace 1.14, written by Peter Selinger 2001-2017
</metadata>
<g transform="translate(0.000000,1024.000000) scale(0.100000,-0.100000)"
fill="#000000" stroke="none">
<path d="M0 5120 l0 -5120 5120 0 5120 0 0 5120 0 5120 -5120 0 -5120 0 0
-5120z m5158 4404 c36 -40 30 -95 -14 -139 -27 -27 -34 -42 -30 -58 3 -12 6
-114 6 -227 l1 -205 133 -87 c73 -49 136 -88 139 -88 4 0 7 52 7 116 0 116 0
116 -30 144 -22 21 -30 37 -30 63 0 49 8 65 41 83 57 29 124 -17 122 -84 -1
-29 -8 -43 -33 -64 l-33 -27 5 -103 c6 -104 20 -154 60 -211 11 -16 19 -30 17
-31 -2 -2 -51 -26 -109 -54 -87 -43 -107 -49 -120 -38 -8 7 -51 38 -95 68
l-80 56 7 -162 c4 -88 9 -180 10 -204 3 -38 1 -42 -15 -38 -11 2 -31 0 -45 -5
-21 -8 -23 -8 -13 5 9 10 14 73 17 193 3 98 7 186 9 196 2 9 1 17 -3 17 -3 0
-64 -39 -135 -87 l-129 -88 6 -40 c3 -22 10 -101 16 -176 11 -132 10 -138 -13
-210 -25 -76 -40 -139 -32 -139 2 0 26 5 54 11 44 9 56 8 98 -11 84 -37 139
-73 122 -79 -8 -3 -55 -32 -105 -64 -49 -31 -213 -135 -364 -231 -151 -96
-336 -213 -410 -260 -228 -147 -262 -167 -348 -212 -46 -24 -90 -44 -98 -44
-9 0 -12 -8 -10 -22 3 -13 5 -31 5 -40 1 -10 7 -15 14 -12 9 3 18 -7 25 -28
12 -33 12 -33 8 12 l-4 45 17 -37 c10 -21 21 -41 26 -45 10 -10 -3 33 -21 71
-8 16 -14 33 -14 37 0 4 24 15 53 24 28 10 56 21 61 26 11 10 56 -19 56 -36 0
-7 5 -15 11 -17 5 -2 -4 -14 -21 -27 l-32 -23 -22 21 c-12 12 -25 21 -29 21
-3 0 -7 -32 -9 -71 l-3 -70 -60 -32 c-33 -18 -64 -37 -70 -43 -5 -6 -37 -31
-70 -54 -33 -24 -73 -55 -89 -69 l-29 -26 6 25 c4 14 7 126 7 250 l0 225 81
54 81 54 -7 377 -7 377 33 25 c55 41 453 310 467 315 8 4 12 -10 13 -48 l1
-54 12 55 11 54 223 156 c122 85 236 170 254 187 31 32 32 36 42 156 l9 125
-36 32 c-48 42 -51 88 -8 131 36 36 68 37 104 4 41 -39 40 -83 -4 -133 l-29
-33 6 -112 c4 -62 8 -113 9 -115 2 -2 64 38 139 89 l136 93 0 229 0 228 -35
33 c-55 52 -46 123 18 151 39 17 65 11 95 -21z m604 -1065 c125 -84 198 -140
202 -153 3 -12 7 -43 8 -71 1 -43 2 -40 7 23 l6 72 71 -52 c39 -29 152 -107
251 -173 l181 -120 6 -60 c3 -33 3 -207 0 -386 l-7 -326 76 -52 c43 -28 77
-55 77 -59 0 -5 -32 -26 -71 -48 l-71 -40 1 -117 c1 -65 4 -124 7 -130 2 -7
24 -25 49 -40 25 -16 47 -33 50 -37 3 -5 -36 17 -87 48 -51 32 -114 69 -140
82 -46 24 -48 27 -48 66 0 25 -6 47 -15 54 -29 24 -5 100 32 100 15 0 -280
195 -607 402 -74 47 -228 144 -341 216 -114 72 -218 137 -233 143 -14 7 -26
20 -26 29 0 22 -11 32 -117 94 -49 28 -88 57 -88 63 0 7 37 34 83 62 l83 50
97 -68 c106 -75 195 -131 207 -131 13 0 -5 83 -32 142 l-25 57 11 198 c6 109
15 199 19 201 4 1 43 22 87 46 44 24 85 44 90 45 6 0 99 -58 207 -130z m-2303
-688 c25 -23 31 -37 31 -70 0 -34 -7 -49 -40 -85 l-40 -43 0 -261 0 -261 27
-3 c31 -3 46 -38 17 -38 -15 0 -15 -3 4 -23 17 -18 22 -36 22 -78 l0 -55 -168
-111 c-92 -62 -175 -115 -184 -118 -9 -4 -27 -1 -40 5 -23 12 -10 -2 68 -70
l29 -25 -5 -182 -5 -182 -75 50 -74 50 -48 -23 -47 -23 -1 -77 0 -78 26 10
c18 7 32 6 52 -5 38 -21 57 -38 64 -57 11 -27 -2 -28 -39 -2 -39 27 -55 29
-84 14 -18 -10 -19 -24 -19 -250 l0 -240 23 -1 c12 0 42 -10 67 -22 41 -20 45
-26 48 -61 l3 -39 -33 28 c-55 47 -132 71 -99 31 7 -8 8 -16 3 -18 -5 -1 -12
-105 -14 -230 l-5 -226 35 -7 c24 -4 38 -2 44 7 7 10 10 9 19 -4 5 -10 17 -18
24 -18 11 0 15 -12 15 -40 0 -45 -7 -48 -41 -22 -13 11 -38 24 -55 29 -26 9
-34 8 -47 -7 -13 -16 -13 -20 2 -35 12 -14 13 -16 1 -9 -34 19 -117 80 -147
108 l-33 30 0 783 0 783 94 62 c52 35 97 72 100 83 3 11 6 71 6 134 0 102 -2
117 -20 136 -22 23 -25 40 -22 117 2 46 4 48 61 88 33 22 64 40 69 40 5 0 35
-16 66 -36 l56 -37 0 -58 0 -57 -76 -46 c-42 -25 -80 -46 -85 -46 -5 0 -9 -50
-9 -110 l0 -111 128 87 c70 48 157 110 195 137 l67 49 0 278 c0 262 -1 279
-18 284 -33 11 -63 53 -69 95 -5 36 -2 44 30 76 47 47 100 49 146 6z m3416 -2
c30 -27 35 -37 35 -74 0 -39 -5 -47 -45 -83 l-45 -40 0 -275 0 -275 53 -39
c82 -62 253 -180 302 -209 l45 -26 0 110 0 110 -85 48 -85 49 0 62 0 62 59 35
c32 20 63 36 69 36 5 0 37 -20 71 -45 l61 -45 0 -59 c0 -49 -4 -65 -25 -89
-24 -29 -25 -35 -25 -163 l1 -134 95 -65 c63 -44 97 -73 101 -90 7 -26 -4
-1591 -12 -1598 -5 -6 -66 31 -127 77 l-48 35 0 156 c0 179 -4 200 -34 201
-21 0 -21 0 2 16 12 8 22 22 22 29 0 10 -16 6 -60 -16 -72 -36 -80 -37 -80 -6
0 19 12 31 56 56 31 17 62 29 69 27 9 -4 14 16 19 70 8 98 8 283 0 362 -8 69
-9 69 -87 30 -40 -20 -57 -18 -57 7 0 23 91 75 123 71 25 -3 28 -1 23 17 -3
12 -6 45 -6 73 0 53 0 53 -44 74 l-44 20 -68 -46 c-38 -26 -77 -54 -86 -62
-16 -14 -17 -3 -20 186 l-3 201 102 60 c56 34 112 70 125 80 42 35 -8 24 -87
-20 -40 -22 -78 -40 -84 -40 -21 0 -246 152 -332 224 -40 34 -39 77 2 119 l31
30 -23 17 c-14 11 -20 23 -16 34 8 20 26 21 52 2 20 -13 20 -10 22 255 l2 268
-33 28 c-18 16 -39 39 -46 52 -30 57 26 141 95 141 24 0 45 -9 70 -31z m-1793
-81 c-7 -7 -12 -8 -12 -2 0 14 12 26 19 19 2 -3 -1 -11 -7 -17z m52 0 c25 -23
82 -58 164 -100 23 -12 42 -26 42 -31 0 -4 5 -5 10 -2 6 3 10 2 10 -3 0 -5 14
-15 30 -22 17 -7 30 -16 30 -21 0 -5 10 -9 22 -9 12 0 18 -3 15 -7 -7 -7 55
-53 71 -53 5 0 15 -7 22 -15 7 -8 16 -13 20 -10 5 3 10 2 12 -3 5 -12 100 -72
115 -72 7 0 13 -4 13 -10 0 -5 7 -10 15 -10 8 0 15 -4 15 -9 0 -8 94 -70 168
-111 15 -8 52 -30 82 -49 30 -20 59 -34 63 -33 5 1 5 -3 1 -9 -4 -7 -2 -10 7
-7 8 3 25 -5 39 -18 14 -12 49 -35 79 -51 29 -15 61 -39 70 -52 15 -24 15 -24
-9 -11 -14 7 -79 47 -145 90 -66 42 -214 136 -330 210 -115 73 -232 147 -260
165 -27 18 -122 78 -210 135 -145 93 -210 140 -193 140 3 0 18 -10 32 -22z
m-83 -12 c12 7 12 5 0 -9 -15 -19 -31 -14 -31 11 0 14 2 14 9 3 5 -8 14 -10
22 -5z m-125 -93 c-4 -5 -29 -21 -56 -38 -106 -65 -304 -192 -480 -307 -210
-137 -388 -248 -398 -248 -4 0 1 5 11 11 9 5 17 17 17 25 0 8 4 13 8 10 5 -3
14 10 21 29 9 25 16 32 28 28 11 -4 14 -2 9 5 -5 9 0 9 19 2 15 -6 28 -10 29
-10 2 0 23 16 47 35 24 19 50 35 57 35 7 0 10 5 7 10 -4 6 -3 9 2 8 17 -5 51
23 63 51 7 17 16 28 21 25 11 -7 79 25 79 38 0 5 8 8 18 6 10 -2 16 2 14 10
-1 8 2 11 7 8 5 -3 11 1 15 9 3 8 10 15 16 15 6 0 8 -5 4 -12 -4 -7 -3 -8 5
-4 6 4 9 11 6 16 -6 10 29 33 125 83 41 22 83 46 93 55 9 8 17 11 17 7 0 -5 7
0 16 11 8 10 13 13 9 7 -4 -8 -1 -11 9 -7 9 3 14 10 13 16 -1 5 19 17 44 27
26 10 57 26 70 35 24 16 49 22 35 9z m-91 -23 c-3 -5 -12 -10 -18 -10 -7 0 -6
4 3 10 19 12 23 12 15 0z m669 -337 c3 -42 6 -109 6 -149 l0 -73 101 -65 c81
-54 100 -70 97 -88 -2 -15 -15 -24 -47 -34 -24 -7 -63 -23 -87 -36 l-44 -23 0
-88 0 -88 -24 18 c-13 10 -21 22 -18 27 3 5 0 6 -7 2 -7 -5 -22 3 -37 19 -13
14 -24 23 -24 20 0 -7 -41 19 -99 62 -24 18 -39 33 -34 33 6 0 22 -9 36 -20
14 -11 30 -20 36 -20 6 0 11 -4 11 -9 0 -5 15 -8 33 -6 18 3 27 1 19 -3 -14
-9 4 -30 47 -52 31 -16 43 -3 48 57 l4 48 -108 72 c-225 150 -249 161 -220
102 7 -13 14 -40 16 -59 4 -43 17 -69 45 -93 27 -23 8 -13 -77 42 l-68 44 2
80 c1 51 -2 82 -9 85 -11 3 -326 -196 -393 -249 l-36 -28 -79 34 c-43 19 -85
35 -91 35 -7 0 -13 11 -13 25 0 21 17 36 99 89 l98 64 5 141 c3 78 8 144 11
147 19 20 27 -18 27 -131 l0 -125 88 57 c48 32 130 87 182 124 l95 66 185
-124 185 -123 6 132 c7 146 6 138 18 138 4 0 11 -34 15 -77z m-1240 -250 c3
-21 6 -68 6 -105 l0 -68 43 -31 c69 -50 98 -63 177 -74 l75 -11 3 -84 c2 -71
0 -87 -14 -97 -28 -20 -34 -16 -34 23 0 52 -15 72 -78 103 -66 32 -167 95
-199 124 -20 18 -21 26 -17 126 3 58 7 112 10 119 7 24 21 11 28 -25z m1705
-129 c1 -95 12 -82 -164 -193 -116 -74 -125 -83 -125 -128 0 -33 -6 -38 -34
-27 -13 5 -16 22 -16 85 0 70 2 79 18 79 43 0 229 88 267 126 11 11 15 38 15
100 0 50 5 92 13 104 11 19 13 17 19 -22 3 -24 7 -80 7 -124z m-2199 132 c0
-3 -4 -8 -10 -11 -5 -3 -10 -1 -10 4 0 6 5 11 10 11 6 0 10 -2 10 -4z m1227
-108 c-3 -7 -5 -2 -5 12 0 14 2 19 5 13 2 -7 2 -19 0 -25z m61 -15 c-10 -2
-18 -8 -18 -13 0 -5 -46 -39 -102 -76 -57 -36 -142 -93 -190 -125 l-88 -59 0
70 c0 41 5 72 12 76 6 4 8 3 4 -4 -3 -6 0 -17 8 -25 13 -13 22 -12 68 3 29 9
54 14 56 10 2 -5 15 3 29 16 14 13 32 24 40 24 8 0 11 5 7 11 -4 8 1 9 17 5
24 -7 24 -7 4 10 -20 16 -20 16 2 10 12 -4 24 -2 28 4 3 6 11 8 16 4 13 -8 49
24 49 44 0 8 6 12 15 8 8 -3 15 -1 15 4 0 6 10 9 23 9 16 -1 18 -2 5 -6z
m-1188 -204 c0 -45 -21 -69 -120 -140 -216 -153 -213 -151 -206 -127 3 13 6
40 6 61 0 23 5 37 13 37 6 0 36 24 64 54 29 29 54 51 58 48 5 -6 8 13 6 40 -3
25 20 33 26 9 10 -38 66 -23 111 30 32 39 42 36 42 -12z m2506 1 c52 -48 84
-53 84 -13 0 32 7 28 12 -7 7 -44 44 -100 67 -100 6 0 11 -4 11 -8 0 -5 18
-17 39 -27 22 -10 42 -24 45 -32 3 -8 2 -11 -3 -8 -5 3 -3 -8 5 -25 31 -61 12
-61 -68 -2 -43 31 -113 82 -157 114 -77 55 -79 57 -82 102 -2 25 -2 46 0 46 2
0 23 -18 47 -40z m-179 -127 c190 -128 236 -155 243 -143 8 12 10 11 10 -5 0
-14 24 -36 78 -71 42 -28 87 -57 100 -63 12 -6 22 -17 22 -24 0 -7 -35 -32
-78 -56 l-77 -43 3 -353 3 -353 -66 -41 c-36 -23 -71 -53 -77 -66 -6 -14 -15
-25 -20 -25 -16 0 -6 736 10 752 7 7 34 24 59 38 26 14 48 31 50 37 2 6 -53
47 -123 93 -69 45 -218 142 -330 216 -111 74 -208 134 -213 134 -7 0 -11 -25
-11 -63 0 -54 4 -67 23 -85 13 -12 27 -19 30 -15 4 3 7 1 7 -5 0 -6 7 -9 17
-5 10 4 14 2 9 -5 -3 -6 3 -13 14 -17 11 -3 20 -11 20 -16 0 -5 9 -9 19 -9 11
0 23 -5 26 -10 4 -6 10 -8 15 -5 4 3 19 -4 31 -15 13 -11 21 -19 17 -20 -11 0
24 -40 35 -40 4 0 5 5 1 12 -4 6 4 3 18 -8 14 -10 25 -21 23 -24 -2 -3 9 -6
23 -7 16 -1 38 -14 54 -33 16 -17 33 -28 40 -24 7 4 8 3 4 -4 -7 -11 6 -17 27
-13 5 1 6 -3 2 -9 -3 -5 -1 -10 4 -10 6 0 11 -8 12 -17 0 -10 3 -13 5 -7 7 18
41 5 59 -23 9 -14 15 -27 13 -29 -7 -7 -268 168 -263 176 3 4 -1 7 -8 6 -7 0
-74 40 -150 89 l-137 90 0 77 c0 49 5 81 13 89 11 10 167 106 176 108 2 1 109
-70 238 -156z m-1862 92 c81 -52 101 -72 73 -72 -7 0 -78 -43 -158 -95 -185
-121 -444 -288 -493 -318 l-39 -23 4 -112 c2 -68 -1 -111 -6 -107 -5 3 -2 -5
7 -19 11 -16 17 -44 17 -84 0 -34 5 -66 11 -72 17 -17 49 -3 70 31 19 31 19
31 19 6 0 -39 -27 -70 -60 -70 -38 0 -52 25 -61 110 -6 60 -6 57 -7 -40 -1
-58 1 -169 5 -247 4 -114 8 -140 19 -136 19 7 86 -6 80 -16 -3 -4 2 -8 10 -8
16 0 22 19 27 82 2 22 4 -2 5 -53 1 -60 -2 -91 -8 -87 -5 3 -10 -1 -10 -10 0
-9 5 -13 10 -10 6 3 10 1 10 -4 0 -6 -4 -11 -8 -11 -5 0 -14 -11 -20 -25 -9
-20 -19 -25 -50 -25 -32 0 -41 5 -50 25 -16 35 -15 56 1 25 7 -14 20 -26 30
-28 26 -5 67 25 67 50 0 29 -38 68 -66 68 -46 0 -52 -35 -52 -288 0 -128 1
-232 3 -232 12 0 127 84 132 96 5 12 11 11 32 -9 14 -14 114 -84 221 -157 107
-73 201 -138 209 -146 20 -18 4 -35 -77 -80 -37 -20 -69 -38 -71 -40 -2 -2 9
-14 25 -26 15 -13 40 -35 56 -50 15 -14 47 -40 72 -57 50 -35 72 -60 35 -40
-50 26 -136 94 -184 144 -30 32 -133 108 -260 191 -115 76 -213 140 -217 142
-4 2 -34 -15 -67 -37 -33 -23 -64 -41 -69 -41 -5 0 -9 305 -8 756 1 690 3 757
18 767 35 25 172 113 194 125 12 7 121 80 241 162 120 82 226 149 236 149 9 1
55 -24 102 -54z m915 -57 c385 -260 492 -334 493 -343 1 -5 -39 -32 -88 -59
-49 -28 -84 -51 -77 -54 6 -2 42 14 79 36 98 56 100 56 134 23 27 -27 40 -71
21 -71 -5 0 -50 -25 -100 -55 -50 -30 -96 -55 -102 -55 -6 0 -33 16 -60 37
-47 35 -48 37 -32 59 9 12 21 20 26 17 5 -3 7 0 4 8 -3 8 -34 34 -70 59 -275
191 -379 261 -386 258 -4 -2 -59 -37 -124 -80 -75 -49 -119 -85 -123 -100 -7
-22 -22 -38 -37 -38 -5 0 -8 15 -8 34 0 26 -7 41 -30 59 -26 22 -30 33 -30 74
l0 49 103 66 c56 37 136 92 177 122 41 30 77 54 80 53 3 -1 70 -46 150 -99z
m2370 2 c22 0 70 -54 76 -84 12 -64 -45 -127 -100 -110 -35 11 -51 46 -16 37
28 -7 70 23 70 50 0 27 -26 67 -44 67 -7 0 -21 7 -32 15 -16 13 -17 16 -4 25
8 5 21 8 28 5 8 -3 17 -5 22 -5z m-4987 -6 c11 -12 -5 -34 -26 -34 -54 0 -78
-76 -33 -105 13 -8 31 -13 40 -9 19 7 21 -7 4 -24 -18 -18 -73 -15 -91 6 -37
41 -34 103 9 145 25 25 80 37 97 21z m827 -191 c0 -22 -9 -49 -20 -63 -18 -23
-20 -42 -20 -301 l0 -277 -44 -58 c-24 -33 -80 -95 -125 -139 -77 -76 -81 -82
-81 -125 l-1 -45 -24 28 c-44 50 -37 65 105 204 l130 128 0 284 0 283 26 30
c14 17 28 44 31 59 8 41 23 36 23 -8z m3331 -40 l29 -28 0 -286 0 -286 29 -39
c27 -37 130 -138 199 -196 39 -32 41 -60 7 -100 l-25 -30 0 42 c0 38 -5 46
-86 123 -48 45 -104 108 -125 139 l-39 57 0 284 0 284 -25 23 c-26 25 -33 65
-12 73 6 2 13 -4 15 -14 2 -10 17 -31 33 -46z m-2088 15 c-3 -23 -9 -50 -14
-61 -13 -24 13 -67 41 -67 21 0 27 15 10 25 -5 3 -10 13 -10 21 0 11 7 9 30
-8 38 -27 38 -35 -1 -56 -17 -9 -54 -35 -82 -56 -48 -37 -50 -40 -30 -49 12
-5 24 -16 27 -24 6 -15 -36 -60 -69 -73 -11 -5 -108 -66 -215 -138 l-195 -129
-3 145 c-3 164 -5 159 82 218 l49 33 31 -23 c74 -56 205 -110 222 -93 3 3 -40
35 -95 71 -56 36 -101 69 -101 74 0 15 300 232 320 232 4 0 5 -19 3 -42z
m-403 -12 c0 -2 -16 -13 -35 -25 -19 -11 -35 -18 -35 -16 0 5 61 45 68 45 1 0
2 -2 2 -4z m-104 -69 c-61 -46 -146 -97 -146 -87 0 6 7 13 15 16 8 4 12 10 9
15 -3 5 2 6 10 3 9 -3 16 -1 16 6 0 6 5 8 10 5 6 -3 10 -1 10 4 0 6 6 11 13
11 6 0 26 11 42 25 17 13 35 24 40 24 6 0 -3 -10 -19 -22z m3474 -42 l0 -65
-30 0 c-33 0 -35 6 -24 71 5 31 22 50 52 58 1 1 2 -28 2 -64z m-5074 39 c-3
-9 -6 -36 -6 -60 0 -45 0 -45 -32 -42 -33 3 -33 4 -36 61 l-3 57 42 0 c33 0
40 -3 35 -16z m2789 -44 c-3 -5 1 -10 9 -10 9 0 16 -4 16 -10 0 -5 4 -9 9 -7
5 1 9 -1 10 -5 3 -24 -1 -26 -20 -7 -20 20 -22 20 -40 3 -10 -9 -16 -21 -12
-27 4 -6 1 -7 -6 -3 -9 6 -8 13 5 27 9 10 14 19 9 19 -4 0 -2 7 5 15 14 17 24
20 15 5z m-1350 -60 c-3 -5 -12 -10 -18 -10 -7 0 -6 4 3 10 19 12 23 12 15 0z
m1370 2 c-5 -4 -11 -13 -13 -21 -3 -12 0 -12 12 -1 14 11 16 9 16 -8 0 -15 -5
-20 -15 -16 -23 9 -38 41 -22 47 20 8 34 8 22 -1z m488 -84 c-9 -10 -46 -33
-82 -50 -36 -17 -67 -32 -68 -32 -2 -1 6 -26 17 -54 18 -46 18 -52 4 -52 -13
0 -134 77 -134 85 0 3 117 51 184 76 l58 21 -5 44 -5 45 24 -32 c22 -31 23
-34 7 -51z m-1063 62 c0 -5 -4 -10 -10 -10 -5 0 -10 5 -10 10 0 6 5 10 10 10
6 0 10 -4 10 -10z m-874 -16 c-9 -6 -14 -13 -11 -16 3 -2 -1 -5 -9 -5 -7 0
-12 7 -11 16 2 9 4 16 4 16 1 1 10 1 22 1 18 0 18 -2 5 -12z m3714 -119 c0
-55 0 -55 -31 -55 -30 0 -30 1 -27 47 3 41 6 48 28 54 14 4 26 7 28 8 1 1 2
-24 2 -54z m-5079 40 c3 -2 3 -26 -1 -52 -5 -45 -7 -48 -35 -48 -28 0 -30 3
-33 39 -2 21 -1 44 2 52 5 13 57 20 67 9z m2777 -177 c141 -94 275 -184 296
-200 40 -29 62 -36 50 -17 -9 16 6 160 17 153 5 -3 9 -45 9 -93 l0 -88 58 -38
c90 -60 202 -144 202 -153 0 -4 -34 -26 -76 -50 l-75 -43 2 -239 2 -240 -77
-54 c-42 -30 -76 -50 -76 -43 0 7 15 21 34 31 58 31 106 81 106 110 0 14 -2
26 -5 26 -12 0 -115 -81 -130 -102 -15 -21 -16 -7 -14 207 l1 230 -120 80
c-66 44 -124 84 -129 89 -11 12 12 0 62 -34 22 -15 70 -44 107 -64 37 -20 74
-46 82 -57 14 -20 15 -20 70 17 60 39 66 49 39 57 -10 2 -148 90 -307 195
-288 189 -290 190 -315 174 -14 -9 -29 -21 -33 -27 -4 -5 -8 22 -8 62 l0 72
-85 55 c-47 31 -85 59 -85 63 1 9 121 93 133 93 5 0 124 -77 265 -172z m-1595
125 c-7 -2 -19 -2 -25 0 -7 3 -2 5 12 5 14 0 19 -2 13 -5z m57 -73 c-8 -19
-20 -30 -34 -31 -15 -1 -13 -3 8 -8 23 -5 31 -14 41 -48 15 -49 -2 -51 -23 -3
-7 16 -21 32 -31 35 -10 3 -26 14 -35 24 -16 17 -15 18 9 13 37 -7 62 20 58
60 -3 30 -2 31 8 11 9 -17 9 -29 -1 -53z m2033 10 c79 -44 130 -85 125 -100
-2 -5 -25 5 -53 22 -126 79 -155 99 -155 108 0 15 5 13 83 -30z m-876 -68 c91
-55 94 -60 78 -97 -9 -19 -14 -24 -14 -13 -1 19 -28 3 -458 -281 -261 -171
-236 -128 -230 -406 4 -194 6 -212 28 -226 8 -5 10 -9 6 -9 -5 0 -27 13 -50
28 -76 51 -137 83 -147 77 -11 -7 -14 415 -4 475 6 31 17 42 116 105 145 93
148 96 148 150 0 56 18 59 22 5 l3 -41 170 114 c94 62 188 125 209 140 22 15
42 26 45 25 3 -2 38 -22 78 -46z m2683 -82 c0 -49 -1 -50 -30 -50 -28 0 -30 2
-30 38 0 41 14 62 42 62 15 0 18 -9 18 -50z m-5070 -5 l0 -45 -40 0 -40 0 0
45 0 45 40 0 40 0 0 -45z m1257 -67 c-2 -13 -4 -5 -4 17 -1 22 1 32 4 23 2
-10 2 -28 0 -40z m3813 -138 c0 -57 -1 -60 -25 -60 -24 0 -25 3 -25 54 0 54 3
59 43 65 4 0 7 -26 7 -59z m-5078 -5 c-4 -53 -5 -55 -32 -55 -32 0 -40 14 -40
71 0 38 1 39 38 39 l37 0 -3 -55z m1265 -27 c-3 -7 -5 -2 -5 12 0 14 2 19 5
13 2 -7 2 -19 0 -25z m-387 -78 c0 -33 -7 -48 -39 -83 -21 -23 -43 -52 -50
-64 -7 -15 -11 -105 -11 -275 l0 -254 -29 -45 c-33 -51 -88 -105 -97 -96 -4 3
15 38 42 78 l49 71 2 275 3 276 44 47 c24 26 51 61 60 78 9 18 19 32 21 32 3
0 5 -18 5 -40z m3303 -40 c10 -16 33 -42 52 -56 l35 -26 0 -265 c0 -282 2
-297 53 -365 14 -18 30 -43 37 -56 31 -62 -72 36 -107 101 -15 28 -18 64 -18
294 l0 261 -53 55 c-49 52 -65 76 -42 62 6 -3 10 1 10 9 0 25 14 19 33 -14z
m-4183 -70 l0 -60 -30 0 -30 0 0 60 0 60 30 0 30 0 0 -60z m5080 0 c0 -53 -2
-60 -20 -60 -16 0 -20 7 -20 35 0 37 18 85 32 85 4 0 8 -27 8 -60z m-3050 -5
c0 -2 -20 -16 -44 -30 -24 -14 -50 -32 -56 -40 -15 -18 -30 -19 -30 -2 0 6 29
26 63 44 72 36 67 34 67 28z m666 -180 l184 -126 0 85 c0 88 6 120 21 110 5
-3 9 -52 9 -108 0 -100 1 -104 25 -120 14 -9 25 -21 25 -26 0 -5 -36 -31 -81
-57 l-80 -48 3 -119 2 -118 -62 -44 -62 -43 0 130 c0 73 5 139 11 150 5 11 24
28 41 38 l30 19 -119 77 c-65 43 -125 80 -133 82 -8 2 -77 -37 -153 -86 l-137
-90 0 -103 0 -103 -86 -58 -86 -58 4 216 c4 204 5 216 25 230 17 12 22 29 28
100 4 47 11 85 15 85 11 0 24 -104 16 -125 -3 -8 -3 -15 0 -15 7 0 268 174
321 215 25 19 48 35 50 35 3 0 88 -56 189 -125z m1204 96 c0 -5 36 -32 80 -60
44 -29 80 -54 80 -56 0 -4 -75 38 -125 71 l-25 16 0 -209 c0 -204 -1 -210 -22
-230 -36 -33 -300 -203 -324 -209 -16 -4 -46 8 -98 40 -42 25 -80 46 -86 46
-28 0 3 26 138 115 81 54 164 111 185 128 l37 29 0 123 c0 87 4 127 13 135 17
15 119 67 135 69 6 0 12 -3 12 -8z m-3922 -124 c3 -52 1 -57 -18 -57 -18 0
-20 6 -20 61 0 52 2 60 18 57 13 -2 18 -15 20 -61z m5102 -2 c0 -30 -4 -55
-10 -55 -10 0 -11 6 -16 73 -1 26 2 37 12 37 10 0 14 -15 14 -55z m-313 -152
c90 -61 109 -78 96 -86 -4 -3 -44 19 -87 48 -81 54 -102 58 -122 22 -5 -9 -4
-9 7 1 16 14 49 16 49 2 0 -5 -3 -10 -7 -10 -5 0 -7 -102 -5 -227 3 -160 0
-225 -7 -218 -6 6 -11 43 -12 83 -1 40 -5 74 -8 77 -11 6 -34 -12 -28 -21 3
-5 1 -27 -3 -49 l-8 -40 -2 35 c-1 19 -4 30 -6 24 -3 -6 -20 -9 -39 -7 -19 2
-35 0 -35 -4 -1 -5 -11 -21 -24 -37 l-24 -29 -41 24 -41 23 0 88 0 89 23 -12
c12 -7 40 -27 61 -46 47 -40 60 -41 108 -8 20 14 41 25 46 25 6 0 13 7 16 16
8 21 8 123 0 163 -6 28 -10 31 -40 29 -18 -1 -30 -6 -28 -10 3 -4 0 -8 -7 -8
-7 0 -21 -7 -31 -17 -17 -15 -18 -14 -18 40 0 55 1 57 28 57 15 0 41 9 57 20
17 11 34 20 39 20 5 0 47 -26 93 -57z m-4484 -88 l57 -38 0 -58 c0 -57 1 -58
36 -75 20 -9 41 -25 47 -36 17 -26 28 -23 95 27 33 25 63 45 66 45 3 0 6 -38
6 -85 l0 -84 -70 -46 c-39 -25 -73 -45 -75 -45 -2 0 -25 -14 -50 -31 l-46 -31
-80 49 c-130 78 -119 51 -119 294 l0 211 38 -30 c20 -16 63 -46 95 -67z m-298
35 c4 -27 4 -54 0 -60 -9 -15 -25 -12 -25 6 0 8 -3 13 -7 11 -5 -3 -8 17 -9
44 0 40 3 49 17 49 13 0 19 -12 24 -50z m5095 0 c0 -21 -4 -42 -10 -45 -6 -4
-10 13 -10 45 0 32 4 49 10 45 6 -3 10 -24 10 -45z m-1690 11 c0 -5 -7 -12
-16 -15 -14 -5 -15 -4 -4 9 14 17 20 19 20 6z m-3410 -181 c0 -12 -28 -25 -36
-17 -9 9 6 27 22 27 8 0 14 -5 14 -10z m5100 -25 c0 -14 -2 -25 -4 -25 -2 0
-6 11 -8 25 -3 14 -1 25 3 25 5 0 9 -11 9 -25z m-282 -97 c-3 -36 -30 -46 -36
-15 -5 26 5 47 23 47 12 0 15 -8 13 -32z m-1381 -49 c121 -71 118 -69 85 -88
-69 -39 -457 -288 -682 -437 -91 -61 -194 -129 -229 -151 l-63 -41 -52 33
c-29 18 -69 40 -89 49 -20 8 -37 19 -37 25 0 5 42 36 93 67 50 31 137 87 192
124 387 257 597 399 640 432 28 21 51 38 52 38 1 0 42 -23 90 -51z m-2447 -48
c0 -9 5 -22 11 -28 8 -8 8 -17 -1 -32 -14 -27 -6 -41 23 -41 28 1 61 25 52 39
-10 17 31 13 49 -4 8 -8 20 -40 26 -71 8 -39 15 -52 21 -43 6 11 17 9 59 -11
l51 -25 -151 -3 -150 -3 0 34 c0 19 -3 76 -7 127 -5 70 -3 91 5 86 7 -4 12
-15 12 -25z m-989 -11 c20 -11 26 -45 8 -55 -15 -10 -79 4 -79 17 0 14 30 48
42 48 5 0 18 -5 29 -10z m5113 -11 c21 -31 10 -51 -27 -47 -38 4 -56 30 -38
52 19 22 47 20 65 -5z m-2548 -93 c-3 -28 -6 -66 -6 -84 0 -18 -4 -31 -8 -28
-11 6 -26 -5 -40 -29 -9 -16 -11 2 -12 85 l0 105 36 1 36 1 -6 -51z m1987 -87
c38 -28 67 -53 64 -55 -3 -3 -31 9 -63 25 -33 17 -60 26 -62 21 -2 -5 -9 -7
-16 -4 -7 3 -19 -2 -26 -11 -12 -15 -40 -21 -40 -9 0 8 63 82 70 83 3 0 36
-22 73 -50z m-3940 0 l52 -42 -35 8 c-19 4 -41 12 -50 17 -15 10 -35 3 -107
-35 -27 -14 -31 -29 -5 -20 14 5 13 3 -3 -10 -24 -19 -36 -10 -28 21 4 17 101
98 121 101 1 1 26 -18 55 -40z m3335 -424 c12 -5 22 -13 22 -17 0 -11 -18 -10
-24 1 -4 5 -102 -55 -219 -133 -116 -79 -232 -155 -258 -169 l-45 -27 -80 50
c-83 52 -102 58 -124 38 -9 -10 -9 -7 1 9 14 20 212 156 429 293 47 30 88 58
91 63 4 5 33 -8 65 -30 97 -66 112 -69 49 -10 -33 31 -68 59 -77 62 -10 4 -18
16 -18 28 0 19 4 18 38 -14 20 -20 54 -49 75 -64 l39 -29 -2 50 c-1 27 0 110
1 184 3 128 4 124 9 -70 5 -201 5 -205 28 -215z m-2648 365 c0 -6 -32 -10 -75
-10 l-75 0 0 -170 c0 -93 2 -170 5 -170 12 0 145 94 145 102 0 5 17 -3 38 -20
20 -16 138 -96 262 -177 212 -141 223 -149 195 -156 -16 -4 -66 -27 -109 -52
-44 -26 -84 -43 -90 -39 -55 34 -382 249 -420 276 l-48 35 -63 -40 c-34 -21
-67 -39 -74 -39 -8 0 -12 55 -13 188 -1 103 -3 205 -4 227 -1 22 0 43 3 48 7
11 323 9 323 -3z m-760 -4 c0 -2 -7 -7 -16 -10 -8 -3 -12 -2 -9 4 6 10 25 14
25 6z m290 -46 c26 -14 42 -47 35 -69 -8 -26 -89 -49 -110 -31 -23 19 -19 76
7 94 26 19 42 20 68 6z m3462 -2 c23 -19 29 -50 15 -77 -15 -31 -86 -40 -112
-14 -48 47 44 133 97 91z m-2995 -90 c-3 -7 -5 -2 -5 12 0 14 2 19 5 13 2 -7
2 -19 0 -25z m387 -55 c6 -54 12 -74 33 -95 36 -37 7 -38 -36 -2 -29 24 -31
30 -31 95 0 52 3 69 14 69 9 0 15 -21 20 -67z m534 38 c29 -27 32 -35 31 -83
-1 -29 -4 -65 -8 -80 l-6 -27 -82 47 c-86 50 -110 67 -78 57 16 -5 17 -5 5 3
-8 6 -18 8 -22 6 -4 -3 -15 -1 -23 4 -13 7 -2 18 52 55 37 25 75 46 83 46 9 1
30 -12 48 -28z m1184 -60 c3 -52 1 -56 -31 -78 -47 -32 -60 -29 -26 7 22 23
29 41 33 85 6 69 20 60 24 -14z m-3008 -43 c3 -13 6 -109 6 -214 l0 -192 35
-26 c49 -38 64 -91 39 -142 -26 -52 -79 -79 -130 -65 -63 17 -84 45 -84 112 0
51 3 60 30 82 16 14 38 28 48 32 16 4 20 20 26 97 3 50 6 147 6 215 0 114 9
154 24 101z m4305 -255 c1 -117 4 -153 14 -153 7 0 29 -14 50 -31 34 -28 37
-34 37 -85 0 -46 -4 -59 -26 -79 -47 -44 -114 -44 -168 -1 -26 20 -30 30 -30
76 -1 49 1 54 40 89 l42 36 4 191 c7 306 35 273 37 -43z m-4598 191 c26 -23
32 -66 16 -107 -18 -43 -26 -47 -79 -51 -99 -5 -134 113 -50 167 32 20 85 16
113 -9z m4976 7 c36 -23 47 -50 39 -96 -7 -37 -29 -60 -47 -49 -8 5 -9 3 -4
-6 6 -9 2 -10 -15 -5 -15 5 -20 4 -16 -3 7 -12 -34 -10 -65 3 -33 13 -50 86
-29 125 12 23 57 49 85 50 11 0 34 -9 52 -19z m-4235 -689 l2 -494 53 -34 c30
-19 58 -45 63 -58 10 -27 2 -136 -11 -136 -4 0 -20 -11 -34 -24 -37 -34 -73
-40 -130 -20 -90 30 -95 36 -95 120 0 82 10 98 83 135 l37 19 0 448 c0 461 6
606 22 562 5 -13 9 -246 10 -518z m-242 499 c-6 -13 -10 -146 -10 -365 0 -215
-4 -346 -10 -346 -5 0 -34 -20 -64 -44 -30 -25 -57 -42 -60 -39 -3 4 -6 1 -6
-6 0 -7 -5 -9 -11 -6 -13 9 11 36 73 82 l48 35 0 334 c0 321 1 335 20 354 25
25 34 26 20 1z m1549 -103 c1 -28 -3 -38 -14 -38 -12 0 -15 14 -14 73 1 71 1
72 14 37 7 -19 14 -52 14 -72z m2094 -25 c4 -58 7 -276 7 -484 l0 -379 55 -36
55 -37 0 -76 c-1 -75 -1 -76 -37 -103 -33 -26 -62 -34 -103 -30 -54 6 -75 12
-99 29 -23 18 -26 27 -29 95 -3 75 -3 75 32 104 19 16 46 37 60 47 l26 18 0
403 c0 394 6 556 20 556 4 0 10 -48 13 -107z m257 -231 l0 -339 50 -32 c27
-18 52 -37 56 -43 11 -18 -38 2 -93 38 l-53 34 0 249 c0 306 8 431 26 431 12
0 14 -61 14 -338z m-1583 246 c-3 -8 -6 -5 -6 6 -1 11 2 17 5 13 3 -3 4 -12 1
-19z m-771 -169 c104 -67 233 -151 288 -186 l98 -65 279 186 c153 102 282 186
286 185 5 0 33 -32 63 -71 84 -108 82 -105 67 -105 -8 0 -54 -25 -103 -57 -49
-31 -127 -82 -174 -112 -47 -30 -114 -73 -150 -96 -36 -23 -110 -72 -166 -109
l-101 -66 -170 111 c-161 105 -333 216 -466 299 -45 27 -63 34 -69 25 -5 -9
-8 -4 -8 13 0 16 21 49 61 97 34 40 65 72 69 72 4 0 93 -55 196 -121z m-977
-613 l3 -602 44 -28 c25 -16 49 -36 54 -46 15 -29 12 -83 -7 -110 -10 -14 -17
-26 -15 -27 1 -2 -1 -2 -5 -1 -5 2 -7 7 -5 11 1 5 -3 5 -9 2 -8 -6 -8 -2 0 13
29 54 7 109 -56 141 -27 14 -77 -4 -107 -37 -29 -33 -17 -99 25 -134 38 -32
58 -34 100 -12 36 18 52 11 23 -10 -27 -21 -125 -16 -148 7 -10 9 -24 17 -32
17 -12 0 -14 15 -12 78 l3 77 52 30 52 30 1 491 c0 544 7 741 24 724 8 -8 12
-197 15 -614z m2755 411 c4 -89 6 -353 5 -587 -1 -287 2 -425 9 -428 5 -1 31
-19 56 -39 44 -35 46 -37 46 -89 0 -41 -4 -54 -15 -54 -8 0 -15 -4 -15 -10 0
-5 -4 -10 -10 -10 -6 0 -6 9 -1 24 11 28 -2 95 -21 108 -63 43 -84 43 -130 0
-42 -39 -39 -94 7 -136 38 -35 45 -51 18 -38 -84 41 -90 50 -92 129 -1 35 4
45 31 68 18 15 43 32 55 38 l23 10 0 542 c0 517 4 635 20 635 4 0 10 -73 14
-163z m-2509 -613 l-1 -641 -52 -58 c-29 -33 -52 -64 -52 -69 0 -13 -20 15
-20 27 0 5 20 28 45 53 l45 43 0 593 c0 617 4 745 24 712 8 -13 11 -213 11
-660z m2303 -684 c25 -23 42 -48 42 -61 0 -18 -10 -12 -60 39 l-60 62 0 618
c0 481 3 621 13 631 10 10 13 -114 17 -619 l5 -631 43 -39z m-1950 443 c1
-389 6 -711 11 -717 6 -7 -2 -12 -26 -13 -34 -2 -47 -8 -107 -54 l-28 -22 7
24 c10 34 35 60 71 75 30 13 31 15 37 96 4 46 7 366 7 713 0 503 3 627 13 617
9 -10 13 -171 15 -719z m1556 415 c4 -128 5 -260 4 -293 -2 -33 -2 -230 0
-437 l2 -378 33 -13 c17 -8 41 -24 51 -36 17 -19 18 -24 6 -46 l-14 -25 -12
30 c-10 23 -23 32 -58 42 l-46 12 0 606 c0 586 5 770 20 770 4 0 11 -105 14
-232z m-1266 -648 c1 -388 0 -716 -3 -730 -7 -32 -72 -77 -89 -60 -8 9 -3 18
22 39 l32 27 0 650 c0 679 5 830 24 797 8 -12 12 -235 14 -723z m976 478 c4
-95 6 -403 5 -684 l-2 -511 23 -31 c12 -17 20 -37 17 -46 -5 -12 -13 -9 -42
16 l-35 32 0 630 c0 604 4 766 20 766 4 0 10 -78 14 -172z m-793 -656 c0 -680
-1 -717 -18 -729 -10 -8 -29 -23 -43 -36 -14 -12 -34 -29 -44 -37 -18 -14 -19
-14 -7 7 6 12 27 35 46 50 l35 28 0 722 c0 397 3 729 7 739 19 50 23 -85 24
-744z m603 636 c3 -13 6 -323 6 -689 l0 -666 35 -32 c32 -29 46 -61 28 -61 -5
0 -29 22 -55 49 l-48 50 0 558 c0 691 8 885 34 791z m-312 -693 c-3 -243 -2
-453 2 -468 3 -15 12 -27 19 -27 15 0 61 -47 70 -72 3 -9 1 -33 -4 -52 -9 -33
-19 -41 -44 -36 -5 1 -7 -2 -3 -6 13 -12 -13 -34 -39 -34 -32 0 -80 26 -93 49
-5 11 -10 38 -10 59 0 33 6 45 31 66 17 14 35 26 40 26 5 0 9 231 9 578 0 318
3 582 8 586 14 15 20 -237 14 -669z m1398 59 c0 -2 -7 -4 -15 -4 -8 0 -15 4
-15 10 0 5 7 7 15 4 8 -4 15 -8 15 -10z m35 6 c3 -6 -1 -7 -9 -4 -18 7 -21 14
-7 14 6 0 13 -4 16 -10z m-1425 -974 c0 -115 -3 -146 -15 -156 -13 -11 -15 4
-15 121 0 136 5 179 21 179 5 0 9 -65 9 -144z"/>
<path d="M5072 9488 c-16 -16 -15 -33 4 -52 23 -24 56 -3 52 32 -3 30 -35 41
-56 20z"/>
<path d="M5400 9070 c-16 -29 -5 -52 22 -48 18 2 23 9 23 33 0 37 -28 46 -45
15z"/>
<path d="M4745 9059 c-10 -30 18 -57 39 -39 9 7 16 23 16 36 0 32 -45 34 -55
3z"/>
<path d="M4602 8323 c-100 -70 -198 -137 -217 -148 -18 -11 -36 -29 -39 -40
-7 -24 -8 -525 -1 -525 2 0 62 38 132 84 70 46 160 104 200 129 70 44 72 47
78 94 3 26 16 82 30 123 23 73 23 81 14 220 -5 80 -10 155 -12 168 -2 21 -19
11 -185 -105z"/>
<path d="M4106 8001 c-104 -71 -197 -136 -207 -145 -14 -11 -19 -29 -19 -65 0
-55 8 -61 88 -61 30 0 42 -4 40 -12 -3 -9 -41 -15 -124 -18 -142 -7 -158 -12
-150 -51 3 -15 6 -114 6 -218 1 -105 4 -191 8 -191 3 0 35 19 70 42 l64 42 -6
45 c-3 25 -9 87 -12 137 -6 84 -5 93 14 112 21 21 102 39 121 27 19 -11 12
-41 -18 -69 -28 -27 -30 -33 -33 -122 -2 -52 -2 -94 0 -94 1 0 81 50 177 111
l175 111 0 274 c0 151 -1 274 -2 274 -2 -1 -88 -59 -192 -129z"/>
<path d="M3884 7195 c-8 -21 3 -45 20 -45 20 0 29 16 21 40 -7 23 -33 27 -41
5z"/>
<path d="M3733 6855 c0 -38 2 -53 4 -32 2 20 2 52 0 70 -2 17 -4 1 -4 -38z"/>
<path d="M3790 6830 c-9 -6 -10 -10 -3 -10 6 0 15 5 18 10 8 12 4 12 -15 0z"/>
<path d="M5397 8282 c-5 -153 -4 -159 24 -246 16 -49 29 -108 29 -131 0 -28 5
-45 14 -48 16 -7 189 -117 293 -188 114 -78 103 -98 103 196 0 157 -4 264 -10
276 -6 10 -30 29 -53 40 -23 12 -116 72 -207 133 -90 61 -170 114 -176 118 -8
5 -13 -37 -17 -150z"/>
<path d="M5916 8191 c-3 -4 6 -6 19 -3 14 2 25 6 25 8 0 8 -39 4 -44 -5z"/>
<path d="M5900 7857 l0 -277 38 -24 c237 -152 306 -196 313 -196 5 0 6 42 3
93 -6 83 -9 95 -35 122 -16 17 -29 36 -29 43 0 17 54 15 98 -5 20 -9 41 -17
45 -17 16 -2 37 -39 28 -50 -15 -20 -53 -213 -45 -228 7 -11 125 -81 130 -76
2 3 6 90 9 194 3 104 8 196 11 206 3 11 -10 25 -48 46 -45 26 -65 31 -130 33
-94 2 -129 19 -42 19 70 0 74 5 65 66 -7 50 -17 59 -216 189 -82 54 -160 108
-172 119 l-23 19 0 -276z"/>
<path d="M5497 7732 c-9 -10 -17 -24 -17 -30 0 -14 40 -42 60 -41 8 0 10 3 4
5 -13 6 -6 56 10 66 8 6 8 8 -1 8 -6 0 -18 2 -25 5 -8 3 -22 -3 -31 -13z"/>
<path d="M3350 7730 c-24 -24 -25 -38 -4 -68 18 -27 55 -29 77 -4 51 56 -20
125 -73 72z"/>
<path d="M2985 7183 c-22 -15 -43 -31 -48 -37 -11 -16 2 -78 20 -98 14 -16 19
-16 51 -2 107 45 129 97 57 140 l-41 24 -39 -27z"/>
<path d="M6764 7725 c-21 -33 -6 -72 31 -81 52 -13 86 53 47 89 -27 24 -59 21
-78 -8z"/>
<path d="M7144 7191 c-81 -50 -78 -80 14 -129 71 -38 80 -39 91 -9 29 78 22
99 -46 139 -28 16 -31 16 -59 -1z"/>
<path d="M7010 6822 c0 -5 -17 -17 -37 -26 -21 -9 -49 -26 -63 -36 l-25 -20
26 0 c34 0 144 71 126 82 -16 10 -27 10 -27 0z"/>
<path d="M5150 6877 c0 -2 6 -10 14 -16 11 -9 16 -9 22 1 4 7 4 10 -1 6 -4 -4
-14 -3 -22 3 -7 6 -13 9 -13 6z"/>
<path d="M6402 5974 c-34 -23 -27 -84 10 -84 53 0 77 50 40 83 -23 21 -22 21
-50 1z m36 -36 c-4 -41 -28 -50 -28 -10 0 16 3 32 7 35 15 16 24 5 21 -25z"/>
<path d="M6396 5784 c-18 -17 -19 -24 -10 -48 8 -20 34 -21 59 -2 17 12 18 18
7 40 -13 30 -33 33 -56 10z"/>
<path d="M5784 5451 c3 -5 -1 -14 -9 -21 -11 -9 -15 -9 -15 -1 0 7 -5 9 -11 5
-16 -10 20 -43 51 -46 19 -2 26 2 28 20 2 13 -2 30 -8 38 -13 15 -45 20 -36 5z"/>
<path d="M5349 4835 c-1 -3 -2 -8 -3 -12 0 -5 -14 -26 -31 -47 -26 -35 -30
-47 -30 -109 0 -80 11 -92 50 -53 23 23 25 31 25 126 0 55 -2 100 -5 100 -3 0
-6 -2 -6 -5z"/>
<path d="M6162 4738 c-23 -23 -11 -78 18 -78 18 0 50 30 50 48 0 14 -28 42
-44 42 -6 0 -17 -5 -24 -12z m28 -35 c0 -19 -3 -24 -10 -17 -6 6 -8 18 -4 27
9 24 14 21 14 -10z"/>
<path d="M7242 4694 c-7 -8 -8 -14 -3 -14 10 0 25 19 20 25 -2 1 -10 -3 -17
-11z"/>
<path d="M3874 3897 c-3 -10 0 -24 7 -33 11 -14 13 -14 22 1 6 12 4 22 -7 33
-14 14 -16 14 -22 -1z"/>
<path d="M3360 4166 c0 -17 5 -26 16 -26 10 0 14 7 12 22 -5 32 -28 35 -28 4z"/>
<path d="M6804 4175 c-7 -18 3 -35 21 -35 15 0 28 27 19 41 -8 14 -34 11 -40
-6z"/>
<path d="M2896 3539 c-50 -40 -23 -129 39 -129 33 0 75 42 75 75 0 30 -41 75
-68 75 -11 0 -31 -9 -46 -21z"/>
<path d="M7211 3536 c-30 -32 -26 -82 11 -109 24 -18 30 -18 58 -7 55 23 66
75 25 115 -31 32 -65 32 -94 1z"/>
<path d="M2572 3907 c-6 -6 -13 -24 -17 -39 -6 -21 -2 -30 20 -44 22 -14 29
-15 51 -4 33 18 42 55 19 80 -20 23 -57 26 -73 7z"/>
<path d="M7557 3902 c-22 -25 -21 -55 2 -76 25 -23 49 -18 74 16 19 25 19 28
3 52 -20 31 -56 34 -79 8z"/>
<path d="M3343 2704 c-43 -25 -43 -25 -43 -84 0 -53 3 -61 31 -84 41 -35 85
-34 127 2 41 34 53 89 28 127 -13 19 -82 65 -98 65 -2 0 -22 -12 -45 -26z"/>
<path d="M6739 2707 c-32 -21 -34 -27 -37 -84 -3 -55 0 -63 22 -81 14 -10 24
-21 22 -23 -10 -10 72 -8 97 2 48 20 73 100 47 150 -11 20 -79 59 -103 59 -8
0 -29 -10 -48 -23z"/>
<path d="M5485 3380 c-15 -17 -16 -24 -7 -45 12 -27 32 -31 63 -15 22 12 24
37 5 63 -17 23 -39 22 -61 -3z m22 -32 c2 -18 0 -20 -7 -8 -12 18 -13 30 -2
30 4 0 9 -10 9 -22z"/>
<path d="M4745 3350 c-3 -6 -2 -10 4 -10 6 0 9 -13 8 -30 -2 -35 -1 -35 -23
-13 -13 13 -16 14 -12 3 8 -26 57 -44 84 -31 40 18 29 44 -33 78 -14 8 -24 9
-28 3z"/>
<path d="M5060 1400 c-24 -24 -26 -62 -5 -80 19 -16 81 -5 89 16 11 28 6 51
-12 67 -25 22 -48 21 -72 -3z"/>
</g>
</svg>
